<?xml version="1.0" encoding="UTF-8"?>
<!DOCTYPE svg  PUBLIC '-//W3C//DTD SVG 1.1//EN'  'http://www.w3.org/Graphics/SVG/1.1/DTD/svg11.dtd' [
	<!ENTITY ns_flows "http://ns.adobe.com/Flows/1.0/">
]>
<svg enable-background="new 0 0 175 45" version="1.1" viewBox="0 0 175 45" xml:space="preserve" xmlns="http://www.w3.org/2000/svg">
<path d="m104.96 11.169c-9.89 0-14.174 6.65-15.617 12.257-0.382 1.499-0.567 3.1-0.567 4.638 0 3.636 1.019 7.377 3.187 10.327 3.134 4.288 8.151 6.381 13.393 6.572 5.337 0.198 8.913-0.714 11.588-2.266 0.521-0.302 0.632-0.661 0.632-1.639v-4.311c0-0.887-0.526-1.296-1.353-0.76-2.876 1.828-6.354 2.956-10.771 2.607-4.449-0.348-8.122-3.463-8.471-7.877h21.961c0.486 0 0.873-0.364 0.904-0.895 0.359-6.009-1.368-18.653-14.886-18.653m-7.913 13.6c0-2.458 2.046-7.136 7.913-7.136 3.241 0 7.041 1.858 7.041 7.136h-14.954z" fill="#F15D22"/>
<path d="m63.469 24.684c0-4.407-0.985-7.788-3.101-10.048-2.192-2.344-6.368-3.458-10.3-3.458-3.93 0-7.958 1.017-11.306 2.999-0.218 0.134-0.349 0.366-0.349 0.62v0.038s0.298 4.844 0.298 4.862c0.051 0.655 0.832 0.867 1.421 0.495 4.834-3.013 10.645-3.564 13.581-2.084 2.066 1.039 2.615 3.237 2.615 4.657v0.705h-8.086c-3.466 0-14.105 1.23-14.105 11.063v0.159c6e-3 3.351 1.154 6.062 3.445 7.84 2.117 1.67 5.022 2.468 8.614 2.468l16.327-5e-3c0.527 0 0.954-0.433 0.954-0.956l-8e-3 -19.355zm-7.141 14.304h-9.657c-1.281-0.076-2.398-0.405-3.422-1.188-1.103-0.862-1.602-1.858-1.617-3.177 0.02-1.737 1.171-5.23 7.049-5.23h7.647v9.595z" fill="#F15D22"/>
<path d="m143 11.547c-1.021-0.276-3.266-0.372-3.864-0.369-4.049-3e-3 -7.685 1.625-10.179 4.108-1.821 1.825-4.094 4.694-4.094 9.689v19.063c0 0.53 0.431 0.961 0.96 0.961h5.569c0.526 0 0.964-0.431 0.964-0.961l7e-3 -18.568c0-5.815 3.863-8.615 10.158-7.314 0.751 0.158 1.32-0.243 1.313-1.104v-3.907c0-1.007-0.105-1.395-0.834-1.598" fill="#F15D22"/>
<path d="m86.125 38.009c-6.305 1.299-10.183-1.504-10.183-7.334l-6e-3 -10.987h7.417c0.531 0 0.967-0.434 0.967-0.965v-4.044c0-0.527-0.436-0.961-0.967-0.961h-7.421l-3e-3 -12.753c0-0.531-0.435-0.965-0.961-0.965h-5.574c-0.538 0-0.97 0.434-0.97 0.965v30.204c0 5.016 2.272 7.89 4.114 9.712 2.493 2.495 6.134 4.119 10.2 4.119 0.604 4e-3 2.842-0.094 3.867-0.367h6e-3c0.729-0.209 0.83-0.601 0.83-1.605v-3.912c8e-3 -0.866-0.564-1.264-1.316-1.107" fill="#F15D22"/>
<path d="m32.223 11.178h-6.597c-0.726 0-0.991 0.3-1.143 0.749l-8.07 25.944-8.074-25.944c-0.138-0.449-0.412-0.749-1.132-0.749h-6.6c-0.407 0-0.74 0.258-0.554 0.749 0 0 9.688 30.771 10.055 31.822 0.374 1.052 0.464 1.251 1.855 1.251h8.908c1.39 0 1.47-0.199 1.848-1.251 0.368-1.051 10.062-31.822 10.062-31.822 0.186-0.491-0.141-0.749-0.558-0.749" fill="#F15D22"/>
<path d="m174.52 24.684c0-4.407-0.984-7.788-3.102-10.048-2.192-2.344-6.368-3.458-10.3-3.458-3.93 0-7.96 1.017-11.306 2.999-0.219 0.134-0.351 0.366-0.351 0.62v0.038s0.299 4.844 0.299 4.862c0.052 0.655 0.832 0.867 1.422 0.495 4.834-3.013 10.645-3.564 13.581-2.084 2.065 1.039 2.615 3.237 2.615 4.657v0.705h-8.088c-3.466 0-14.105 1.23-14.105 11.063v0.159c6e-3 3.351 1.154 6.062 3.446 7.84 2.118 1.669 5.021 2.467 8.613 2.467l16.327-5e-3c0.528 0 0.954-0.433 0.954-0.956l-5e-3 -19.354zm-7.14 14.304h-9.657c-1.281-0.076-2.397-0.405-3.424-1.188-1.102-0.862-1.602-1.858-1.616-3.177 0.02-1.737 1.171-5.23 7.049-5.23h7.648v9.595z" fill="#F15D22"/>
</svg>
